<?xml version="1.0" standalone="no"?>
<!DOCTYPE svg PUBLIC "-//W3C//DTD SVG 20010904//EN"
 "http://www.w3.org/TR/2001/REC-SVG-20010904/DTD/svg10.dtd">
<svg version="1.0" xmlns="http://www.w3.org/2000/svg"
 width="350.000000pt" height="350.000000pt" viewBox="0 0 350.000000 350.000000"
 preserveAspectRatio="xMidYMid meet">

<g transform="translate(0.000000,350.000000) scale(0.100000,-0.100000)"
fill="#000000" stroke="none">
<path d="M661 3048 c-5 -13 -45 -114 -90 -226 l-81 -202 0 -930 0 -930 330 0
330 0 0 -180 0 -180 168 0 167 0 180 180 180 180 255 0 255 0 343 343 342 342
0 813 0 812 -1185 0 -1185 0 -9 -22z m2139 -865 l0 -648 -192 -192 -193 -193
-315 0 -315 0 -182 -182 -183 -183 0 183 0 182 -270 0 -270 0 0 840 0 840 960
0 960 0 0 -647z"/>
<path d="M1540 2035 l0 -345 105 0 105 0 0 345 0 345 -105 0 -105 0 0 -345z"/>
<path d="M2170 2035 l0 -345 105 0 105 0 0 345 0 345 -105 0 -105 0 0 -345z"/>
</g>
</svg>
