<?xml version="1.0" encoding="UTF-8" standalone="no"?>
<svg
   id="Layer_1"
   data-name="Layer 1"
   viewBox="0 0 343.3 226.07"
   version="1.1"
   sodipodi:docname="logo-dark.svg"
   inkscape:version="1.1 (c68e22c387, 2021-05-23)"
   xmlns:inkscape="http://www.inkscape.org/namespaces/inkscape"
   xmlns:sodipodi="http://sodipodi.sourceforge.net/DTD/sodipodi-0.dtd"
   xmlns="http://www.w3.org/2000/svg"
   xmlns:svg="http://www.w3.org/2000/svg">
  <sodipodi:namedview
     id="namedview125"
     pagecolor="#505050"
     bordercolor="#eeeeee"
     borderopacity="1"
     inkscape:pageshadow="0"
     inkscape:pageopacity="0"
     inkscape:pagecheckerboard="0"
     showgrid="false"
     inkscape:zoom="3.755474"
     inkscape:cx="171.61615"
     inkscape:cy="113.035"
     inkscape:window-width="1858"
     inkscape:window-height="1057"
     inkscape:window-x="1494"
     inkscape:window-y="-8"
     inkscape:window-maximized="1"
     inkscape:current-layer="Layer_1" />
  <defs
     id="defs70">
    <style
       id="style68">.cls-1{fill:#ebebeb;}.cls-2{fill:#5071ae;}.cls-3{fill:#c62e50;}</style>
  </defs>
  <polygon
     class="cls-1"
     points="249.56 75.06 241.31 75.06 233.95 82.42 226.59 75.06 218.34 75.06 218.34 83.31 225.7 90.67 218.34 98.03 218.34 106.28 226.59 106.28 233.95 98.92 241.31 106.28 249.56 106.28 249.56 98.03 242.2 90.67 249.56 83.31 249.56 75.06"
     id="polygon72"
     style="fill:#ffffff" />
  <polygon
     class="cls-1"
     points="124.68 75.06 114.28 85.47 114.28 95.88 124.68 106.28 135.09 106.28 145.5 95.88 145.5 85.47 135.09 75.06 124.68 75.06"
     id="polygon74"
     style="fill:#ffffff" />
  <polygon
     class="cls-2"
     points="280.78 33.44 280.78 12.63 207.94 12.63 207.94 43.84 207.94 64.66 259.97 64.66 259.97 116.69 218.34 116.69 218.34 137.5 280.78 137.5 280.78 43.84 228.75 43.84 228.75 33.44 280.78 33.44"
     id="polygon76"
     style="fill:#32609c;fill-opacity:1" />
  <polygon
     class="cls-3"
     points="155.9 137.5 176.72 137.5 176.72 127.1 187.12 127.1 187.12 137.5 207.94 137.5 207.94 106.28 155.9 106.28 155.9 137.5"
     id="polygon78"
     style="fill:#be0026;fill-opacity:1" />
  <rect
     class="cls-3"
     x="166.31"
     y="43.84"
     width="31.22"
     height="20.81"
     id="rect80"
     style="fill:#be0026;fill-opacity:1" />
  <polygon
     class="cls-1"
     points="155.9 64.66 155.9 43.84 89.39 43.84 83.06 43.84 62.24 43.84 62.24 54.25 83.06 54.25 83.06 64.66 31.03 64.66 31.03 75.06 83.06 75.06 83.06 85.47 41.43 85.47 41.43 95.88 83.06 95.88 83.06 106.28 62.24 106.28 62.24 116.69 83.06 116.69 83.06 127.1 51.84 127.1 51.84 137.5 83.06 137.5 89.39 137.5 145.5 137.5 145.5 116.69 103.87 116.69 103.87 64.66 155.9 64.66"
     id="polygon82"
     style="fill:#ffffff" />
  <path
     class="cls-1"
     d="M15.74,178.92a14.29,14.29,0,0,1,0-19.88,13.62,13.62,0,0,1,10-4,13.76,13.76,0,0,1,8.79,2.72A11.5,11.5,0,0,1,38.89,164l-6.21,1.53a6.11,6.11,0,0,0-2.41-3.2A7.39,7.39,0,0,0,25.79,161a7,7,0,0,0-5.49,2.3,8,8,0,0,0-2.08,5.62,8.21,8.21,0,0,0,2.1,5.65,7,7,0,0,0,5.47,2.35,7.56,7.56,0,0,0,4.49-1.32,5.89,5.89,0,0,0,2.4-3.15L38.89,174a11.36,11.36,0,0,1-4.33,6.2,13.74,13.74,0,0,1-8.7,2.68A13.83,13.83,0,0,1,15.74,178.92Z"
     id="path84"
     style="fill:#ffffff" />
  <path
     class="cls-1"
     d="M62.91,176.73v5.63H40.79v-4.24l13-16.93H41v-5.63H62.54v4.34L49.65,176.73Z"
     id="path86"
     style="fill:#ffffff" />
  <path
     class="cls-1"
     d="M72.55,161.32V166h12v5.55h-12v5.1H86.48v5.74H66.35v-26.8H86.51v5.76Z"
     id="path88"
     style="fill:#ffffff" />
  <path
     class="cls-1"
     d="M92.76,178.92a14.29,14.29,0,0,1,0-19.88,13.62,13.62,0,0,1,10-4,13.76,13.76,0,0,1,8.79,2.72,11.5,11.5,0,0,1,4.35,6.27l-6.21,1.53a6.11,6.11,0,0,0-2.41-3.2,7.37,7.37,0,0,0-4.48-1.36,7,7,0,0,0-5.49,2.3,8,8,0,0,0-2.08,5.62,8.21,8.21,0,0,0,2.1,5.65,7,7,0,0,0,5.47,2.35,7.56,7.56,0,0,0,4.49-1.32,5.89,5.89,0,0,0,2.4-3.15l6.21,1.57a11.36,11.36,0,0,1-4.33,6.2,15.12,15.12,0,0,1-18.82-1.3Z"
     id="path90"
     style="fill:#ffffff" />
  <path
     class="cls-1"
     d="M142.42,155.56v26.8h-6.35V171.61H125.51v10.75h-6.36v-26.8h6.36v10.3h10.56v-10.3Z"
     id="path92"
     style="fill:#ffffff" />
  <path
     class="cls-1"
     d="M150,178.92a14.3,14.3,0,0,1,0-19.9,15,15,0,0,1,20.32,0,14.3,14.3,0,0,1,0,19.9,15,15,0,0,1-20.32,0Zm15.79-4.18a8.14,8.14,0,0,0,2.14-5.77,8.22,8.22,0,0,0-2.14-5.79,8.05,8.05,0,0,0-11.25,0A8.18,8.18,0,0,0,152.4,169a8.09,8.09,0,0,0,2.14,5.77,8.05,8.05,0,0,0,11.25,0Z"
     id="path94"
     style="fill:#ffffff" />
  <path
     class="cls-1"
     d="M180.35,180.55a12.38,12.38,0,0,1-4.56-5.78l6.05-1.87a7.17,7.17,0,0,0,2.6,3.22,7.47,7.47,0,0,0,4.32,1.23,5.53,5.53,0,0,0,3-.75,2.12,2.12,0,0,0,1.15-1.77c0-1.1-.95-2-2.87-2.58l-6.9-2.13a9.85,9.85,0,0,1-4.47-2.72,6.09,6.09,0,0,1-1.64-4.36,7,7,0,0,1,2.79-5.67A10.85,10.85,0,0,1,187,155a13.77,13.77,0,0,1,7.49,2,10.17,10.17,0,0,1,4.34,5l-5.85,1.72a6.07,6.07,0,0,0-2.39-2.32,7.1,7.1,0,0,0-3.51-.89,4.78,4.78,0,0,0-2.58.62,1.84,1.84,0,0,0-1,1.58c0,.92.6,1.57,1.79,1.93l6.75,2.15a15.12,15.12,0,0,1,5.43,2.76,6,6,0,0,1,1.91,4.77,7.46,7.46,0,0,1-3,6.07,12.36,12.36,0,0,1-8,2.43A13.42,13.42,0,0,1,180.35,180.55Z"
     id="path96"
     style="fill:#ffffff" />
  <path
     class="cls-1"
     d="M221.76,176.55v5.81H202.81v-26.8h6.35v21Z"
     id="path98"
     style="fill:#ffffff" />
  <path
     class="cls-1"
     d="M227,178.92a14.3,14.3,0,0,1,0-19.9,15,15,0,0,1,20.32,0,14.3,14.3,0,0,1,0,19.9,15,15,0,0,1-20.32,0Zm15.79-4.18A8.14,8.14,0,0,0,245,169a8.22,8.22,0,0,0-2.14-5.79,8.05,8.05,0,0,0-11.25,0,8.18,8.18,0,0,0-2.14,5.79,8.09,8.09,0,0,0,2.14,5.77,8.05,8.05,0,0,0,11.25,0Z"
     id="path100"
     style="fill:#ffffff" />
  <path
     class="cls-1"
     d="M279.16,155.56l-10.45,26.8h-7l-10.44-26.8h7l6.88,18.65,6.93-18.65Z"
     id="path102"
     style="fill:#ffffff" />
  <path
     class="cls-1"
     d="M296,177.24H284.69l-1.89,5.12h-6.54l9.9-26.8h8.36l9.9,26.8h-6.54Zm-2-5.55-3.63-10-3.64,10Z"
     id="path104"
     style="fill:#ffffff" />
  <path
     class="cls-1"
     d="M316.4,171.84l-3.33,3.75v6.77h-6.35v-26.8h6.35V167.2l9.72-11.64h8l-10.26,11.57,11,15.23h-7.7Z"
     id="path106"
     style="fill:#ffffff" />
  <path
     class="cls-3"
     d="M84,191.17V213h-3.4V197l-7.5,10.5L65.66,197v16H62.25V191.17h3.24l7.66,11,7.62-11Z"
     id="path108"
     style="fill:#be0026;fill-opacity:1" />
  <path
     class="cls-3"
     d="M108.72,207.73H98.32L96.23,213H92.69l8.66-21.87h4.33L114.34,213h-3.53Zm-1.16-3-4-10.34-4.06,10.34Z"
     id="path110"
     style="fill:#be0026;fill-opacity:1" />
  <path
     class="cls-3"
     d="M131.92,204.92H126.4V213H123V191.17h10.4a6.78,6.78,0,0,1,5.23,2.09,6.86,6.86,0,0,1,2,4.81,6.75,6.75,0,0,1-1.34,4.09,6.43,6.43,0,0,1-3.73,2.47l5.64,8.41h-3.91Zm-5.52-3h6.83a4,4,0,0,0,3-1.13,3.72,3.72,0,0,0,1.13-2.72,3.81,3.81,0,0,0-1.11-2.73,3.85,3.85,0,0,0-2.89-1.14H126.4Z"
     id="path112"
     style="fill:#be0026;fill-opacity:1" />
  <path
     class="cls-3"
     d="M164.6,207.73H154.2L152.11,213h-3.54l8.67-21.87h4.33L170.23,213h-3.54Zm-1.16-3-4-10.34-4.06,10.34Z"
     id="path114"
     style="fill:#be0026;fill-opacity:1" />
  <path
     class="cls-3"
     d="M193.34,194.23h-7.69V213h-3.4V194.23h-7.71v-3.06h18.8Z"
     id="path116"
     style="fill:#be0026;fill-opacity:1" />
  <path
     class="cls-3"
     d="M220.37,191.17V213H217v-9.63H205.64V213h-3.42V191.17h3.42v9.19H217v-9.19Z"
     id="path118"
     style="fill:#be0026;fill-opacity:1" />
  <path
     class="cls-3"
     d="M233.27,210.18a11.74,11.74,0,1,1,8.14,3.27A11,11,0,0,1,233.27,210.18Zm13.89-2.25a8.35,8.35,0,0,0,2.22-5.89,8.1,8.1,0,0,0-2.24-5.79,8.21,8.21,0,0,0-11.5,0,8.13,8.13,0,0,0-2.23,5.79,8.35,8.35,0,0,0,2.23,5.89,8.14,8.14,0,0,0,11.52,0Z"
     id="path120"
     style="fill:#be0026;fill-opacity:1" />
  <path
     class="cls-3"
     d="M280.78,191.17V213h-2.85l-12.11-15.83V213h-3.41V191.17h2.85L277.37,207V191.17Z"
     id="path122"
     style="fill:#be0026;fill-opacity:1" />
</svg>
