<?xml version="1.0" encoding="UTF-8" standalone="no"?>
<svg
   id="Layer_1"
   data-name="Layer 1"
   viewBox="0 0 345.91 242.76"
   version="1.1"
   sodipodi:docname="logo.svg"
   inkscape:version="1.1 (c68e22c387, 2021-05-23)"
   xmlns:inkscape="http://www.inkscape.org/namespaces/inkscape"
   xmlns:sodipodi="http://sodipodi.sourceforge.net/DTD/sodipodi-0.dtd"
   xmlns="http://www.w3.org/2000/svg"
   xmlns:svg="http://www.w3.org/2000/svg">
  <sodipodi:namedview
     id="namedview121"
     pagecolor="#505050"
     bordercolor="#eeeeee"
     borderopacity="1"
     inkscape:pageshadow="0"
     inkscape:pageopacity="0"
     inkscape:pagecheckerboard="0"
     showgrid="false"
     inkscape:zoom="3.4972813"
     inkscape:cx="172.84855"
     inkscape:cy="121.38"
     inkscape:window-width="1858"
     inkscape:window-height="1057"
     inkscape:window-x="1494"
     inkscape:window-y="-8"
     inkscape:window-maximized="1"
     inkscape:current-layer="Layer_1" />
  <defs
     id="defs68">
    <style
       id="style66">.cls-1{fill:#000000;}.cls-2{fill:#be0026;}.cls-3{fill:#32609C;}.cls-4{fill:#ffffff;}</style>
  </defs>
  <path
     class="cls-1"
     d="M17,196.84A14.31,14.31,0,0,1,17,177a13.62,13.62,0,0,1,10-4,13.82,13.82,0,0,1,8.79,2.72,11.52,11.52,0,0,1,4.35,6.27L34,183.47a6.17,6.17,0,0,0-2.42-3.19,7.38,7.38,0,0,0-4.48-1.37,7.07,7.07,0,0,0-5.49,2.3,8.64,8.64,0,0,0,0,11.27,7,7,0,0,0,5.47,2.36,7.54,7.54,0,0,0,4.49-1.32A6,6,0,0,0,34,190.37l6.2,1.57a11.4,11.4,0,0,1-4.33,6.2,13.8,13.8,0,0,1-8.7,2.68A13.83,13.83,0,0,1,17,196.84Z"
     id="path70" />
  <path
     class="cls-1"
     d="M64.22,194.65v5.63H42.09V196l13-16.93H42.3v-5.62H63.84v4.33L51,194.65Z"
     id="path72" />
  <path
     class="cls-1"
     d="M73.86,179.23v4.66h12v5.55h-12v5.1H87.78v5.74H67.65v-26.8H87.82v5.75Z"
     id="path74" />
  <path
     class="cls-1"
     d="M94.07,196.84a14.3,14.3,0,0,1,0-19.89,13.62,13.62,0,0,1,10-4,13.87,13.87,0,0,1,8.8,2.72,11.5,11.5,0,0,1,4.34,6.27l-6.2,1.53a6.2,6.2,0,0,0-2.41-3.19,7.43,7.43,0,0,0-4.49-1.37,7,7,0,0,0-5.48,2.3,8.09,8.09,0,0,0-2.09,5.63,8.19,8.19,0,0,0,2.1,5.64,7,7,0,0,0,5.47,2.36,7.57,7.57,0,0,0,4.5-1.32,6,6,0,0,0,2.4-3.15l6.2,1.57a11.34,11.34,0,0,1-4.33,6.2,15.11,15.11,0,0,1-18.81-1.3Z"
     id="path76" />
  <path
     class="cls-1"
     d="M143.73,173.48v26.8h-6.36V189.53H126.81v10.75h-6.35v-26.8h6.35v10.29h10.56V173.48Z"
     id="path78" />
  <path
     class="cls-1"
     d="M151.31,196.84a14.29,14.29,0,0,1,0-19.91,14.95,14.95,0,0,1,20.31,0,14.29,14.29,0,0,1,0,19.91,14.95,14.95,0,0,1-20.31,0Zm15.78-4.18a8.88,8.88,0,0,0,0-11.56,8,8,0,0,0-11.25,0,8.88,8.88,0,0,0,0,11.56,8.05,8.05,0,0,0,11.25,0Z"
     id="path80" />
  <path
     class="cls-1"
     d="M181.65,198.46a12.36,12.36,0,0,1-4.56-5.77l6.06-1.87a7,7,0,0,0,2.6,3.21,7.35,7.35,0,0,0,4.31,1.24,5.48,5.48,0,0,0,3-.75,2.13,2.13,0,0,0,1.16-1.78c0-1.09-1-2-2.88-2.57L184.48,188a9.87,9.87,0,0,1-4.48-2.71,6.16,6.16,0,0,1-1.64-4.37,7,7,0,0,1,2.8-5.66,10.8,10.8,0,0,1,7.11-2.34,13.74,13.74,0,0,1,7.48,2.05,10.15,10.15,0,0,1,4.35,5l-5.85,1.72a6.14,6.14,0,0,0-2.39-2.32,7,7,0,0,0-3.52-.9,4.69,4.69,0,0,0-2.58.63,1.85,1.85,0,0,0-1,1.58q0,1.38,1.8,1.92l6.74,2.15a15.11,15.11,0,0,1,5.43,2.77,6,6,0,0,1,1.92,4.76,7.49,7.49,0,0,1-3.05,6.08,12.35,12.35,0,0,1-7.94,2.43A13.46,13.46,0,0,1,181.65,198.46Z"
     id="path82" />
  <path
     class="cls-1"
     d="M223.06,194.46v5.82H204.11v-26.8h6.36v21Z"
     id="path84" />
  <path
     class="cls-1"
     d="M228.35,196.84a14.29,14.29,0,0,1,0-19.91,14.95,14.95,0,0,1,20.31,0,14.29,14.29,0,0,1,0,19.91,14.95,14.95,0,0,1-20.31,0Zm15.78-4.18a8.88,8.88,0,0,0,0-11.56,8,8,0,0,0-11.25,0,8.88,8.88,0,0,0,0,11.56,8.05,8.05,0,0,0,11.25,0Z"
     id="path86" />
  <path
     class="cls-1"
     d="M280.47,173.48,270,200.28h-7l-10.45-26.8h7l6.87,18.65,6.94-18.65Z"
     id="path88" />
  <path
     class="cls-1"
     d="M297.32,195.15H286l-1.88,5.13h-6.55l9.91-26.8h8.35l9.91,26.8h-6.54Zm-2-5.55-3.62-10-3.65,10Z"
     id="path90" />
  <path
     class="cls-1"
     d="M317.7,189.75l-3.32,3.76v6.77H308v-26.8h6.36v11.64l9.71-11.64h8L321.87,185l11,15.24h-7.7Z"
     id="path92" />
  <path
     class="cls-2"
     d="M85.33,209.08V231h-3.4V215l-7.51,10.51L67,215v16H63.55V209.08H66.8l7.65,11,7.63-11Z"
     id="path94" />
  <path
     class="cls-2"
     d="M110,225.64H99.62L97.53,231H94l8.67-21.87H107L115.65,231h-3.54Zm-1.16-3-4-10.34-4.06,10.34Z"
     id="path96" />
  <path
     class="cls-2"
     d="M133.22,222.84H127.7V231h-3.39V209.08h10.41a6.91,6.91,0,0,1,5.84,11,6.5,6.5,0,0,1-3.74,2.47l5.64,8.4h-3.9Zm-5.52-3h6.83a4,4,0,0,0,3-1.12,3.72,3.72,0,0,0,1.12-2.72,3.78,3.78,0,0,0-1.11-2.73,3.83,3.83,0,0,0-2.89-1.14H127.7Z"
     id="path98" />
  <path
     class="cls-2"
     d="M165.91,225.64h-10.4L153.42,231h-3.54l8.66-21.87h4.33L171.53,231H168Zm-1.16-3-4-10.34-4.05,10.34Z"
     id="path100" />
  <path
     class="cls-2"
     d="M194.64,212.15H187V231h-3.4v-18.8h-7.72v-3.07h18.8Z"
     id="path102" />
  <path
     class="cls-2"
     d="M221.67,209.08V231H218.3v-9.62H206.94V231h-3.42V209.08h3.42v9.2H218.3v-9.2Z"
     id="path104" />
  <path
     class="cls-2"
     d="M234.58,228.1a11.76,11.76,0,1,1,8.13,3.26A11,11,0,0,1,234.58,228.1Zm13.88-2.26a8.32,8.32,0,0,0,2.22-5.88,8.09,8.09,0,0,0-2.23-5.79,8.18,8.18,0,0,0-11.5,0,8.1,8.1,0,0,0-2.24,5.79,8.29,8.29,0,0,0,2.24,5.88,8.1,8.1,0,0,0,11.51,0Z"
     id="path106" />
  <path
     class="cls-2"
     d="M282.09,209.08V231h-2.86l-12.1-15.83V231h-3.42V209.08h2.85l12.11,15.85V209.08Z"
     id="path108" />
  <path
     class="cls-1"
     d="M296.55,11.4V157.88H45.43V126.49H55.89V116H35V95.1H24.5V63.71H55.89V42.79H202.38V11.4h94.17ZM254.7,84.64h-8.3L239,92l-7.4-7.4h-8.29v8.3l7.4,7.39-7.4,7.4V116h8.29l7.4-7.4,7.4,7.4h8.3v-8.3l-7.4-7.4,7.4-7.39Zm-125.56,0L118.67,95.1v10.47L129.14,116H139.6l10.46-10.46V95.1L139.6,84.64Z"
     id="path110" />
  <polygon
     class="cls-3"
     points="286.09 42.79 286.09 21.86 212.84 21.86 212.84 53.25 212.84 74.18 265.16 74.18 265.16 126.49 223.31 126.49 223.31 147.42 286.09 147.42 286.09 53.25 233.77 53.25 233.77 42.79 286.09 42.79"
     id="polygon112" />
  <polygon
     class="cls-2"
     points="160.53 147.42 181.45 147.42 181.45 136.96 191.92 136.96 191.92 147.42 212.84 147.42 212.84 116.03 160.53 116.03 160.53 147.42"
     id="polygon114" />
  <rect
     class="cls-2"
     x="170.99"
     y="53.25"
     width="31.39"
     height="20.93"
     id="rect116" />
  <polygon
     class="cls-4"
     points="160.53 74.18 160.53 53.25 93.65 53.25 87.28 53.25 66.36 53.25 66.36 63.71 87.28 63.71 87.28 74.18 34.97 74.18 34.97 84.64 87.28 84.64 87.28 95.1 45.43 95.1 45.43 105.57 87.28 105.57 87.28 116.03 66.36 116.03 66.36 126.49 87.28 126.49 87.28 136.96 55.89 136.96 55.89 147.42 87.28 147.42 93.65 147.42 150.06 147.42 150.06 126.49 108.21 126.49 108.21 74.18 160.53 74.18"
     id="polygon118" />
  <path
     style="fill:#ffffff;stroke-width:0.285936"
     d="m 124.02201,110.58308 -5.21544,-5.22116 v -5.14694 -5.146925 l 5.22116,-5.215441 5.22117,-5.215441 h 5.00388 5.00389 l 5.35848,5.364058 5.35849,5.364059 v 5.00403 5.00404 l -5.22116,5.21544 -5.22117,5.21544 h -5.14693 -5.14693 z"
     id="path316" />
  <path
     style="fill:#ffffff;stroke-width:0.285936"
     d="m 223.45929,111.73348 v -4.07076 l 3.71732,-3.72499 3.71732,-3.72498 -3.71732,-3.709071 -3.71732,-3.709067 v -4.07872 -4.078719 h 3.9278 3.92779 l 3.77227,3.764507 3.77227,3.764507 3.98277,-3.764507 3.98277,-3.764507 h 3.9007 3.9007 v 4.07076 4.070761 l -3.78468,3.79249 -3.78469,3.792486 3.78469,3.7925 3.78468,3.79249 v 3.92779 3.92779 h -4.07872 -4.07872 l -3.70907,-3.71732 -3.70906,-3.71732 -3.72499,3.71732 -3.72499,3.71732 h -4.07076 -4.07076 z"
     id="path355" />
</svg>
