<?xml version="1.0" encoding="UTF-8" standalone="no"?>
<!DOCTYPE svg PUBLIC "-//W3C//DTD SVG 1.1//EN" "http://www.w3.org/Graphics/SVG/1.1/DTD/svg11.dtd">
<svg version="1.1" xmlns="http://www.w3.org/2000/svg" xmlns:xlink="http://www.w3.org/1999/xlink" preserveAspectRatio="xMidYMid meet" viewBox="0 0 640 640" width="640" height="640"><defs><path d="M502.54 207.43C464.67 207.43 433.96 176.76 433.96 138.93C433.96 101.09 464.67 70.42 502.54 70.42C540.42 70.42 571.12 101.09 571.12 138.93C571.12 176.76 540.42 207.43 502.54 207.43ZM225 159.53C185.77 159.53 185.77 218.3 225 218.3C232.73 218.3 271.42 218.3 341.04 218.3L212.84 346.36C131.04 346.36 85.6 346.36 76.51 346.36C26.83 345.66 26.83 420.45 76.51 419.75C91.67 419.75 212.9 419.75 228.06 419.75C237.81 419.78 247.17 415.93 254.08 409.05C257.45 405.69 274.29 388.87 304.6 358.59L349.47 403.31C287.64 465.07 253.3 499.38 246.43 506.24C211.79 540.9 263.84 592.79 298.47 558.13C311.37 545.25 414.54 442.19 427.44 429.31C441.78 414.98 441.78 391.75 427.44 377.42C424.86 374.84 411.94 361.93 388.69 338.71L444.28 283.19C458.8 297.7 466.87 305.76 468.48 307.37C473.99 312.87 481.45 315.96 489.24 315.97C497.45 315.97 563.12 315.97 571.33 315.97C610.56 315.97 610.56 257.19 571.33 257.19C566.67 257.19 543.36 257.19 501.39 257.19L461.12 216.96C431.78 187.66 415.49 171.38 412.23 168.13C406.72 162.62 399.25 159.53 391.46 159.53C358.17 159.53 258.29 159.53 225 159.53Z" id="fzRUpjtPs"></path></defs><g><g><g><use xlink:href="#fzRUpjtPs" opacity="1" fill="#000000" fill-opacity="1"></use><g><use xlink:href="#fzRUpjtPs" opacity="1" fill-opacity="0" stroke="#000000" stroke-width="20" stroke-opacity="0"></use></g></g></g></g></svg>